<mxfile host="app.diagrams.net" modified="2023-09-29T18:16:09.796Z" agent="Mozilla/5.0 (Windows NT 10.0; Win64; x64) AppleWebKit/537.36 (KHTML, like Gecko) Chrome/117.0.0.0 Safari/537.36" etag="OQFKqz8WBrtJZWwiVpT2" version="21.7.2" type="github">
  <diagram name="Página-1" id="MXImuc_xYYfgAwj5JnpL">
    <mxGraphModel dx="1432" dy="808" grid="1" gridSize="10" guides="1" tooltips="1" connect="1" arrows="1" fold="1" page="1" pageScale="1" pageWidth="827" pageHeight="1169" math="0" shadow="0">
      <root>
        <mxCell id="0" />
        <mxCell id="1" parent="0" />
        <mxCell id="Ooc3bksP8nuoTTXjAJ4i-70" style="edgeStyle=orthogonalEdgeStyle;rounded=0;orthogonalLoop=1;jettySize=auto;html=1;" edge="1" parent="1" source="Ooc3bksP8nuoTTXjAJ4i-42" target="Ooc3bksP8nuoTTXjAJ4i-1">
          <mxGeometry relative="1" as="geometry">
            <Array as="points">
              <mxPoint x="180" y="400" />
            </Array>
          </mxGeometry>
        </mxCell>
        <mxCell id="Ooc3bksP8nuoTTXjAJ4i-42" value="" style="image;aspect=fixed;html=1;points=[];align=center;fontSize=12;image=img/lib/azure2/general/Browser.svg;" vertex="1" parent="1">
          <mxGeometry x="20" width="320" height="256" as="geometry" />
        </mxCell>
        <mxCell id="Ooc3bksP8nuoTTXjAJ4i-20" style="edgeStyle=orthogonalEdgeStyle;rounded=0;orthogonalLoop=1;jettySize=auto;html=1;entryX=-0.073;entryY=0.56;entryDx=0;entryDy=0;entryPerimeter=0;" edge="1" parent="1" source="Ooc3bksP8nuoTTXjAJ4i-1" target="Ooc3bksP8nuoTTXjAJ4i-2">
          <mxGeometry relative="1" as="geometry">
            <Array as="points">
              <mxPoint x="220" y="442" />
              <mxPoint x="220" y="290" />
              <mxPoint x="597" y="290" />
            </Array>
          </mxGeometry>
        </mxCell>
        <mxCell id="Ooc3bksP8nuoTTXjAJ4i-71" style="edgeStyle=orthogonalEdgeStyle;rounded=0;orthogonalLoop=1;jettySize=auto;html=1;" edge="1" parent="1" source="Ooc3bksP8nuoTTXjAJ4i-1">
          <mxGeometry relative="1" as="geometry">
            <mxPoint x="59" y="260" as="targetPoint" />
          </mxGeometry>
        </mxCell>
        <mxCell id="Ooc3bksP8nuoTTXjAJ4i-1" value="Firewall&amp;nbsp;" style="image;aspect=fixed;html=1;points=[];align=center;fontSize=12;image=img/lib/azure2/networking/Web_Application_Firewall_Policies_WAF.svg;" vertex="1" parent="1">
          <mxGeometry x="9" y="392" width="100" height="100" as="geometry" />
        </mxCell>
        <mxCell id="Ooc3bksP8nuoTTXjAJ4i-12" value="" style="edgeStyle=orthogonalEdgeStyle;rounded=0;orthogonalLoop=1;jettySize=auto;html=1;" edge="1" parent="1" source="Ooc3bksP8nuoTTXjAJ4i-2" target="Ooc3bksP8nuoTTXjAJ4i-11">
          <mxGeometry relative="1" as="geometry" />
        </mxCell>
        <mxCell id="Ooc3bksP8nuoTTXjAJ4i-2" value="Politica de Acessos" style="image;aspect=fixed;html=1;points=[];align=center;fontSize=12;image=img/lib/azure2/intune/Exchange_Access.svg;" vertex="1" parent="1">
          <mxGeometry x="600" y="270" width="41.18" height="50" as="geometry" />
        </mxCell>
        <mxCell id="Ooc3bksP8nuoTTXjAJ4i-52" style="edgeStyle=orthogonalEdgeStyle;rounded=0;orthogonalLoop=1;jettySize=auto;html=1;" edge="1" parent="1" source="Ooc3bksP8nuoTTXjAJ4i-3" target="Ooc3bksP8nuoTTXjAJ4i-26">
          <mxGeometry relative="1" as="geometry" />
        </mxCell>
        <mxCell id="Ooc3bksP8nuoTTXjAJ4i-54" style="edgeStyle=orthogonalEdgeStyle;rounded=0;orthogonalLoop=1;jettySize=auto;html=1;" edge="1" parent="1" source="Ooc3bksP8nuoTTXjAJ4i-3" target="Ooc3bksP8nuoTTXjAJ4i-24">
          <mxGeometry relative="1" as="geometry">
            <Array as="points">
              <mxPoint x="440" y="960" />
              <mxPoint x="440" y="960" />
            </Array>
          </mxGeometry>
        </mxCell>
        <mxCell id="Ooc3bksP8nuoTTXjAJ4i-3" value="Gatway" style="sketch=0;points=[[0,0,0],[0.25,0,0],[0.5,0,0],[0.75,0,0],[1,0,0],[0,1,0],[0.25,1,0],[0.5,1,0],[0.75,1,0],[1,1,0],[0,0.25,0],[0,0.5,0],[0,0.75,0],[1,0.25,0],[1,0.5,0],[1,0.75,0]];outlineConnect=0;fontColor=#232F3E;gradientColor=#945DF2;gradientDirection=north;fillColor=#5A30B5;strokeColor=#ffffff;dashed=0;verticalLabelPosition=bottom;verticalAlign=middle;align=center;html=1;fontSize=12;fontStyle=0;aspect=fixed;shape=mxgraph.aws4.resourceIcon;resIcon=mxgraph.aws4.api_gateway;horizontal=0;" vertex="1" parent="1">
          <mxGeometry x="414" y="628" width="78" height="78" as="geometry" />
        </mxCell>
        <mxCell id="Ooc3bksP8nuoTTXjAJ4i-4" value="SERVIÇO" style="image;aspect=fixed;html=1;points=[];align=center;fontSize=12;image=img/lib/azure2/other/Container_App_Environments.svg;" vertex="1" parent="1">
          <mxGeometry x="200" y="160" width="50" height="50" as="geometry" />
        </mxCell>
        <mxCell id="Ooc3bksP8nuoTTXjAJ4i-5" value="SERVIÇO" style="image;aspect=fixed;html=1;points=[];align=center;fontSize=12;image=img/lib/azure2/other/Container_App_Environments.svg;" vertex="1" parent="1">
          <mxGeometry x="200" y="70" width="50" height="50" as="geometry" />
        </mxCell>
        <mxCell id="Ooc3bksP8nuoTTXjAJ4i-65" style="edgeStyle=orthogonalEdgeStyle;rounded=0;orthogonalLoop=1;jettySize=auto;html=1;" edge="1" parent="1" source="Ooc3bksP8nuoTTXjAJ4i-6" target="Ooc3bksP8nuoTTXjAJ4i-2">
          <mxGeometry relative="1" as="geometry">
            <Array as="points">
              <mxPoint x="621" y="185" />
            </Array>
          </mxGeometry>
        </mxCell>
        <mxCell id="Ooc3bksP8nuoTTXjAJ4i-6" value="SERVIÇO" style="image;aspect=fixed;html=1;points=[];align=center;fontSize=12;image=img/lib/azure2/other/Container_App_Environments.svg;" vertex="1" parent="1">
          <mxGeometry x="269" y="160" width="50" height="50" as="geometry" />
        </mxCell>
        <mxCell id="Ooc3bksP8nuoTTXjAJ4i-47" style="edgeStyle=orthogonalEdgeStyle;rounded=0;orthogonalLoop=1;jettySize=auto;html=1;entryX=1.01;entryY=0.79;entryDx=0;entryDy=0;entryPerimeter=0;" edge="1" parent="1" source="Ooc3bksP8nuoTTXjAJ4i-9" target="Ooc3bksP8nuoTTXjAJ4i-1">
          <mxGeometry relative="1" as="geometry">
            <mxPoint x="140" y="504" as="targetPoint" />
          </mxGeometry>
        </mxCell>
        <mxCell id="Ooc3bksP8nuoTTXjAJ4i-9" value="Usuário" style="sketch=0;html=1;dashed=0;whitespace=wrap;fillColor=#2875E2;strokeColor=#ffffff;points=[[0.005,0.63,0],[0.1,0.2,0],[0.9,0.2,0],[0.5,0,0],[0.995,0.63,0],[0.72,0.99,0],[0.5,1,0],[0.28,0.99,0]];verticalLabelPosition=bottom;align=center;verticalAlign=top;shape=mxgraph.kubernetes.icon;prIcon=user" vertex="1" parent="1">
          <mxGeometry x="300" y="447" width="50" height="48" as="geometry" />
        </mxCell>
        <mxCell id="Ooc3bksP8nuoTTXjAJ4i-11" value="" style="verticalLabelPosition=bottom;html=1;verticalAlign=top;align=center;strokeColor=none;fillColor=#00BEF2;shape=mxgraph.azure.sql_database;" vertex="1" parent="1">
          <mxGeometry x="750" y="197" width="67.5" height="90" as="geometry" />
        </mxCell>
        <mxCell id="Ooc3bksP8nuoTTXjAJ4i-61" style="edgeStyle=orthogonalEdgeStyle;rounded=0;orthogonalLoop=1;jettySize=auto;html=1;entryX=0.75;entryY=1;entryDx=0;entryDy=0;entryPerimeter=0;" edge="1" parent="1" source="Ooc3bksP8nuoTTXjAJ4i-24" target="Ooc3bksP8nuoTTXjAJ4i-3">
          <mxGeometry relative="1" as="geometry">
            <Array as="points">
              <mxPoint x="473" y="893" />
            </Array>
          </mxGeometry>
        </mxCell>
        <mxCell id="Ooc3bksP8nuoTTXjAJ4i-76" style="edgeStyle=orthogonalEdgeStyle;rounded=0;orthogonalLoop=1;jettySize=auto;html=1;" edge="1" parent="1" source="Ooc3bksP8nuoTTXjAJ4i-24" target="Ooc3bksP8nuoTTXjAJ4i-26">
          <mxGeometry relative="1" as="geometry" />
        </mxCell>
        <mxCell id="Ooc3bksP8nuoTTXjAJ4i-24" value="Firewall&amp;nbsp;" style="image;aspect=fixed;html=1;points=[];align=center;fontSize=12;image=img/lib/azure2/networking/Web_Application_Firewall_Policies_WAF.svg;" vertex="1" parent="1">
          <mxGeometry x="413.9999999999998" y="1040" width="100" height="100" as="geometry" />
        </mxCell>
        <mxCell id="Ooc3bksP8nuoTTXjAJ4i-25" value="" style="edgeStyle=orthogonalEdgeStyle;rounded=0;orthogonalLoop=1;jettySize=auto;html=1;" edge="1" parent="1" source="Ooc3bksP8nuoTTXjAJ4i-26" target="Ooc3bksP8nuoTTXjAJ4i-37">
          <mxGeometry relative="1" as="geometry" />
        </mxCell>
        <mxCell id="Ooc3bksP8nuoTTXjAJ4i-26" value="Politica de Acessos" style="image;aspect=fixed;html=1;points=[];align=center;fontSize=12;image=img/lib/azure2/intune/Exchange_Access.svg;" vertex="1" parent="1">
          <mxGeometry x="600" y="790" width="41.18" height="50" as="geometry" />
        </mxCell>
        <mxCell id="Ooc3bksP8nuoTTXjAJ4i-62" style="edgeStyle=orthogonalEdgeStyle;rounded=0;orthogonalLoop=1;jettySize=auto;html=1;" edge="1" parent="1" source="Ooc3bksP8nuoTTXjAJ4i-36" target="Ooc3bksP8nuoTTXjAJ4i-24">
          <mxGeometry relative="1" as="geometry" />
        </mxCell>
        <mxCell id="Ooc3bksP8nuoTTXjAJ4i-36" value="Usuário" style="sketch=0;html=1;dashed=0;whitespace=wrap;fillColor=#2875E2;strokeColor=#ffffff;points=[[0.005,0.63,0],[0.1,0.2,0],[0.9,0.2,0],[0.5,0,0],[0.995,0.63,0],[0.72,0.99,0],[0.5,1,0],[0.28,0.99,0]];verticalLabelPosition=bottom;align=center;verticalAlign=top;shape=mxgraph.kubernetes.icon;prIcon=user;direction=east;" vertex="1" parent="1">
          <mxGeometry x="140" y="1066" width="50" height="48" as="geometry" />
        </mxCell>
        <mxCell id="Ooc3bksP8nuoTTXjAJ4i-37" value="" style="verticalLabelPosition=bottom;html=1;verticalAlign=top;align=center;strokeColor=none;fillColor=#00BEF2;shape=mxgraph.azure.sql_database;" vertex="1" parent="1">
          <mxGeometry x="721.25" y="770" width="67.5" height="90" as="geometry" />
        </mxCell>
        <mxCell id="Ooc3bksP8nuoTTXjAJ4i-59" style="edgeStyle=orthogonalEdgeStyle;rounded=0;orthogonalLoop=1;jettySize=auto;html=1;entryX=0;entryY=0.5;entryDx=0;entryDy=0;entryPerimeter=0;exitX=0.543;exitY=-0.057;exitDx=0;exitDy=0;exitPerimeter=0;" edge="1" parent="1" source="Ooc3bksP8nuoTTXjAJ4i-40" target="Ooc3bksP8nuoTTXjAJ4i-3">
          <mxGeometry relative="1" as="geometry">
            <mxPoint x="300" y="780" as="sourcePoint" />
            <mxPoint x="384" y="667" as="targetPoint" />
            <Array as="points">
              <mxPoint x="175" y="826" />
              <mxPoint x="175" y="667" />
            </Array>
          </mxGeometry>
        </mxCell>
        <mxCell id="Ooc3bksP8nuoTTXjAJ4i-40" value="SERVIÇO" style="image;aspect=fixed;html=1;points=[];align=center;fontSize=12;image=img/lib/azure2/other/Container_App_Environments.svg;" vertex="1" parent="1">
          <mxGeometry x="140" y="830" width="70" height="70" as="geometry" />
        </mxCell>
        <mxCell id="Ooc3bksP8nuoTTXjAJ4i-64" style="edgeStyle=orthogonalEdgeStyle;rounded=0;orthogonalLoop=1;jettySize=auto;html=1;" edge="1" parent="1" source="Ooc3bksP8nuoTTXjAJ4i-7" target="Ooc3bksP8nuoTTXjAJ4i-2">
          <mxGeometry relative="1" as="geometry" />
        </mxCell>
        <mxCell id="Ooc3bksP8nuoTTXjAJ4i-77" style="edgeStyle=orthogonalEdgeStyle;rounded=0;orthogonalLoop=1;jettySize=auto;html=1;" edge="1" parent="1" source="Ooc3bksP8nuoTTXjAJ4i-7" target="Ooc3bksP8nuoTTXjAJ4i-2">
          <mxGeometry relative="1" as="geometry" />
        </mxCell>
        <mxCell id="Ooc3bksP8nuoTTXjAJ4i-7" value="SERVIÇO" style="image;aspect=fixed;html=1;points=[];align=center;fontSize=12;image=img/lib/azure2/other/Container_App_Environments.svg;" vertex="1" parent="1">
          <mxGeometry x="269" y="70" width="50" height="50" as="geometry" />
        </mxCell>
        <mxCell id="Ooc3bksP8nuoTTXjAJ4i-66" value="SERVIÇO" style="image;aspect=fixed;html=1;points=[];align=center;fontSize=12;image=img/lib/azure2/other/Container_App_Environments.svg;" vertex="1" parent="1">
          <mxGeometry x="130" y="160" width="50" height="50" as="geometry" />
        </mxCell>
        <mxCell id="Ooc3bksP8nuoTTXjAJ4i-78" style="edgeStyle=orthogonalEdgeStyle;rounded=0;orthogonalLoop=1;jettySize=auto;html=1;" edge="1" parent="1" source="Ooc3bksP8nuoTTXjAJ4i-67" target="Ooc3bksP8nuoTTXjAJ4i-2">
          <mxGeometry relative="1" as="geometry" />
        </mxCell>
        <mxCell id="Ooc3bksP8nuoTTXjAJ4i-67" value="SERVIÇO" style="image;aspect=fixed;html=1;points=[];align=center;fontSize=12;image=img/lib/azure2/other/Container_App_Environments.svg;" vertex="1" parent="1">
          <mxGeometry x="130" y="70" width="50" height="50" as="geometry" />
        </mxCell>
        <mxCell id="Ooc3bksP8nuoTTXjAJ4i-68" value="SERVIÇO" style="image;aspect=fixed;html=1;points=[];align=center;fontSize=12;image=img/lib/azure2/other/Container_App_Environments.svg;" vertex="1" parent="1">
          <mxGeometry x="50" y="160" width="50" height="50" as="geometry" />
        </mxCell>
        <mxCell id="Ooc3bksP8nuoTTXjAJ4i-79" style="edgeStyle=orthogonalEdgeStyle;rounded=0;orthogonalLoop=1;jettySize=auto;html=1;" edge="1" parent="1" source="Ooc3bksP8nuoTTXjAJ4i-69" target="Ooc3bksP8nuoTTXjAJ4i-2">
          <mxGeometry relative="1" as="geometry" />
        </mxCell>
        <mxCell id="Ooc3bksP8nuoTTXjAJ4i-69" value="SERVIÇO" style="image;aspect=fixed;html=1;points=[];align=center;fontSize=12;image=img/lib/azure2/other/Container_App_Environments.svg;" vertex="1" parent="1">
          <mxGeometry x="50" y="70" width="50" height="50" as="geometry" />
        </mxCell>
        <mxCell id="Ooc3bksP8nuoTTXjAJ4i-73" style="edgeStyle=orthogonalEdgeStyle;rounded=0;orthogonalLoop=1;jettySize=auto;html=1;" edge="1" parent="1" source="Ooc3bksP8nuoTTXjAJ4i-72" target="Ooc3bksP8nuoTTXjAJ4i-3">
          <mxGeometry relative="1" as="geometry">
            <Array as="points">
              <mxPoint x="74" y="640" />
            </Array>
          </mxGeometry>
        </mxCell>
        <mxCell id="Ooc3bksP8nuoTTXjAJ4i-72" value="SERVIÇO" style="image;aspect=fixed;html=1;points=[];align=center;fontSize=12;image=img/lib/azure2/other/Container_App_Environments.svg;" vertex="1" parent="1">
          <mxGeometry x="39" y="829" width="70" height="70" as="geometry" />
        </mxCell>
        <mxCell id="Ooc3bksP8nuoTTXjAJ4i-83" style="edgeStyle=orthogonalEdgeStyle;rounded=0;orthogonalLoop=1;jettySize=auto;html=1;entryX=0;entryY=0.75;entryDx=0;entryDy=0;entryPerimeter=0;" edge="1" parent="1" source="Ooc3bksP8nuoTTXjAJ4i-81" target="Ooc3bksP8nuoTTXjAJ4i-3">
          <mxGeometry relative="1" as="geometry" />
        </mxCell>
        <mxCell id="Ooc3bksP8nuoTTXjAJ4i-81" value="SERVIÇO" style="image;aspect=fixed;html=1;points=[];align=center;fontSize=12;image=img/lib/azure2/other/Container_App_Environments.svg;" vertex="1" parent="1">
          <mxGeometry x="230" y="829" width="70" height="70" as="geometry" />
        </mxCell>
      </root>
    </mxGraphModel>
  </diagram>
</mxfile>
